<?xml version="1.0" encoding="UTF-8"?><svg id="Ebene_1" xmlns="http://www.w3.org/2000/svg" viewBox="0 0 394.64 313.09"><defs><style>.cls-1{letter-spacing:-.09em;}.cls-2{letter-spacing:-.09em;}.cls-3{letter-spacing:-.07em;}.cls-4{letter-spacing:-.06em;}.cls-5,.cls-6,.cls-7,.cls-8{fill:#fff;}.cls-9{fill:#c80000;}.cls-6{font-size:60px;}.cls-6,.cls-8{font-family:PTSans-Bold, 'PT Sans';font-weight:700;}.cls-10{letter-spacing:-.06em;}.cls-11{letter-spacing:-.06em;}.cls-12{letter-spacing:-.05em;}.cls-13{letter-spacing:-.05em;}.cls-7{font-family:PTSans-Regular, 'PT Sans';font-size:40px;}.cls-8{font-size:74px;}</style></defs><g><text class="cls-6" transform="translate(156.01 95.41) scale(1.3 1)"><tspan class="cls-13" x="0" y="0">Rug</tspan><tspan class="cls-11" x="91.56" y="0">b</tspan><tspan class="cls-2" x="120" y="0">y</tspan></text><text class="cls-8" transform="translate(5.45 161.24) scale(1.3 1)"><tspan class="cls-3" x="0" y="0">A</tspan><tspan class="cls-12" x="39.66" y="0">cadem</tspan><tspan class="cls-1" x="226.95" y="0">y</tspan></text><text class="cls-7" transform="translate(89.87 208.19) scale(1.3 1)"><tspan class="cls-13" x="0" y="0">Hann</tspan><tspan class="cls-10" x="82.48" y="0">o</tspan><tspan class="cls-4" x="101.44" y="0">v</tspan><tspan class="cls-13" x="118.28" y="0">er</tspan></text><g><path class="cls-5" d="m67.85,115.11c.16.09.33.14.51.14.32,0,.64-.16.83-.44,10.64-15.85,24.2-30.56,40.3-43.72.62-.5,1.24-1,1.86-1.5l1.05-.84c.38-.31.78-.61,1.17-.91l1.77-1.36c.64-.51,1.3-.99,1.96-1.48l1.01-.75c.81-.62,1.65-1.22,2.48-1.81l.51-.37c4.36-3.11,8.39-5.82,12.32-8.3,4.16-2.63,8.46-5.17,12.79-7.55,4.29-2.39,8.73-4.69,13.18-6.83,18.49-8.87,37.32-15.51,55.95-19.74,9.72-2.22,19.61-3.85,29.38-4.85l.68-.07c.39-.04.78-.09,1.16-.12l5.62-.44c.29-.03.59-.04.89-.06l5.62-.28c.19,0,.39-.01.58-.02l4.78-.1c.39-.01.79-.02,1.17-.02l5.64.03c.38,0,.76.02,1.14.03l2.62.07c.51.01.97-.38,1.02-.91.05-.52-.32-1-.84-1.08-9.92-1.6-20.16-2.25-30.42-1.95-9.92.27-20.16,1.35-30.42,3.21-9.9,1.8-19.88,4.36-29.68,7.61l-5.74,1.98c-.2.07-.4.14-.6.21l-5.24,1.99c-.94.36-1.88.71-2.8,1.11l-5.28,2.21c-.39.16-.77.33-1.15.51l-2.51,1.12c-.54.24-1.08.48-1.6.73l-3.47,1.63c-4.61,2.25-9.18,4.64-13.57,7.12-2.12,1.19-4.17,2.42-6.61,3.9l-3.26,2.02-3.21,2.09c-4.61,3.07-8.7,5.98-12.49,8.9l-.46.36c-.86.66-1.72,1.32-2.56,2l-4.7,3.86c-.41.34-.82.69-1.21,1.04l-.99.87c-.63.55-1.26,1.1-1.89,1.65-7.8,6.97-14.9,14.44-21.1,22.19-3.28,4.12-6.3,8.29-8.96,12.38-.33.5-.65,1-.97,1.51l-1.07,1.72c-.26.41-.5.82-.75,1.23l-1.22,2.06c-.41.71-.81,1.44-1.2,2.16l-.65,1.18c-.52.98-1.03,1.96-1.53,2.95l-.22.43c-.24.47-.07,1.05.38,1.32Z"/><path class="cls-5" d="m388.21,88.43c-.87-4.82-2.17-9.52-3.85-13.99l-.84-2.11c-.17-.42-.34-.84-.52-1.24l-.36-.81c-.36-.81-.74-1.66-1.14-2.45-.41-.87-.87-1.72-1.32-2.57l-.35-.66c-.26-.46-.52-.92-.79-1.39l-.09-.16c-.28-.5-.59-1-.94-1.56l-1.95-3.03c-.22-.32-.44-.63-.66-.94l-.54-.77c-.12-.17-.23-.33-.36-.5l-1.06-1.41c-.18-.25-.37-.5-.56-.73l-1.11-1.39c-.25-.3-.5-.6-.75-.89l-.6-.7c-.13-.16-.26-.31-.41-.47l-1-1.1c-.27-.3-.53-.59-.81-.87l-1.23-1.27c-.27-.28-.55-.55-.83-.83l-1.73-1.66c-1.66-1.56-3.48-3.12-5.41-4.62-3.65-2.86-7.6-5.48-11.76-7.81-7.83-4.39-16.54-7.83-25.9-10.23-.51-.13-1.04.16-1.2.66-.16.5.1,1.05.59,1.24,9.04,3.48,17.13,7.61,24.07,12.29,7.72,5.22,14.29,11.23,19.52,17.87l1.36,1.77c.21.28.42.56.62.83l.96,1.37c.15.21.3.43.44.65l.91,1.38c.09.14.18.28.27.42l.48.78c.18.29.36.58.53.86l.83,1.44.78,1.44c.25.47.5.93.74,1.42l1.04,2.13c.35.76.7,1.52,1.03,2.32.32.72.6,1.45.88,2.18l.33.85c.14.35.26.71.39,1.07l.67,1.96c1.3,4.12,2.25,8.37,2.83,12.63.54,4.06.75,8.41.6,12.92-.13,4.11-.62,8.45-1.46,12.89-.79,4.24-1.89,8.49-3.25,12.63-1.31,4-2.92,8.1-4.79,12.2-1.79,3.91-3.84,7.85-6.08,11.68-4.3,7.36-9.43,14.63-15.26,21.63-2.81,3.37-5.79,6.7-8.88,9.9-2.99,3.12-6.21,6.24-9.56,9.29-12.75,11.6-27.38,22.04-43.5,31.02-8.1,4.47-16.22,8.44-24.13,11.79l-3.1,1.31c-.68.28-1.36.55-2.04.82l-2.65,1.06c-.33.13-.67.26-1,.38l-3.71,1.4-3.18,1.13-4.52,1.54c-.62.21-1.23.41-1.84.61l-3.22,1c-17.82,5.44-35.62,8.71-52.9,9.73-8.92.55-18.01.45-27.02-.31-9.23-.81-18.23-2.37-26.76-4.62-.51-.13-1.04.15-1.21.66-.16.5.09,1.05.59,1.24,8.19,3.21,17.2,5.68,26.79,7.33,4.34.74,8.87,1.31,13.84,1.75l1.04.08c.81.06,1.62.13,2.45.19l3.47.18,6.99.17c.35,0,.69,0,1.04,0,17.73,0,35.98-2.45,54.28-7.28l3.37-.91c.81-.23,1.62-.46,2.43-.7l7.63-2.36,3.9-1.33c.36-.12.72-.24,1.08-.37l2.74-1c.73-.26,1.46-.53,2.19-.8l3.25-1.26c1-.38,1.98-.79,2.96-1.19l1.4-.58c.71-.29,1.42-.58,2.14-.89l3.21-1.39c.69-.3,1.37-.62,2.05-.93l1.15-.52c4.32-1.99,8.55-4.09,12.57-6.23,17.04-9.09,32.51-19.92,46-32.18,3.48-3.17,6.88-6.49,10.1-9.86,3.31-3.48,6.46-7.04,9.38-10.6,6.2-7.59,11.6-15.46,16.05-23.41,2.37-4.24,4.5-8.55,6.33-12.8,1.9-4.42,3.55-8.95,4.9-13.48.33-1.15.65-2.3.97-3.47l.54-2.17c.11-.44.22-.89.31-1.32l.45-2.06c.04-.19.08-.39.12-.59l.49-2.64c.07-.39.13-.78.19-1.17l.1-.63c.78-5.12,1.13-9.84,1.1-14.42-.02-4.95-.45-9.81-1.28-14.44Z"/><path class="cls-5" d="m76.42,226.4c5.02,4.39,10.84,8.1,17.31,11.04.13.06.27.09.41.09.36,0,.7-.19.88-.53.25-.46.09-1.04-.35-1.32-3.31-2.06-5.94-3.84-8.27-5.6-2.51-1.84-5.05-3.98-7.54-6.36-2.43-2.32-4.67-4.75-6.65-7.2l-1.52-1.97-1.77-2.49c-.07-.1-.13-.2-.2-.3l-1.04-1.6c-.14-.21-.28-.43-.41-.64l-.63-1.08c-3.3-5.6-5.77-11.68-7.31-18.06l-.17-.72c-.13-.56-.26-1.11-.37-1.68l-.09-.45c-.05-.25-.1-.51-.15-.76l-.6-3.67c-.04-.26-.07-.51-.1-.77l-.1-.88c-.03-.26-.06-.52-.09-.79-.31-2.98-.45-6.23-.43-9.94,0-.53-.4-.96-.93-1-.51-.03-.99.34-1.06.86-.46,3.23-.65,6.68-.58,10.28.1,3.46.48,6.92,1.13,10.28,1.34,6.85,3.81,13.37,7.35,19.36l.66,1.12c.15.24.3.48.46.72l1.07,1.64c.08.13.16.25.26.39l1.13,1.56,2.41,3.08c2.22,2.63,4.67,5.11,7.27,7.38Z"/></g></g><g><rect class="cls-9" x="226.01" y="292.1" width="114.88" height="14.36" transform="translate(566.9 598.55) rotate(-180)"/><rect class="cls-5" x="97.26" y="292.1" width="114.88" height="14.36" transform="translate(309.4 598.55) rotate(-180)"/></g></svg>